<svg width="800" height="400" viewBox="0 0 800 400" xmlns="http://www.w3.org/2000/svg"><mask id="satori_om-id"><rect x="0" y="0" width="800" height="400" fill="#fff"/></mask><rect x="0" y="0" width="800" height="400" fill="#171717"/><path fill="#ec4899" d="M171.8 241.8L152.1 241.8L152.1 148.7L171.8 148.7L171.8 189.8L173 189.8L206.5 148.7L230.1 148.7L195.5 190.4L230.5 241.8L207.0 241.8L181.5 203.5L171.8 215.4L171.8 241.8ZM240.4 148.7L260.0 148.7L260.0 241.8L240.4 241.8L240.4 148.7ZM276.3 241.8L276.3 148.7L300.5 148.7L326.2 211.3L327.3 211.3L352.9 148.7L377.2 148.7L377.2 241.8L358.1 241.8L358.1 181.2L357.3 181.2L333.2 241.4L320.2 241.4L296.1 181.0L295.4 181.0L295.4 241.8L276.3 241.8ZM413.0 241.8L393.4 241.8L393.4 148.7L430.1 148.7Q440.7 148.7 448.1 152.7Q455.6 156.8 459.5 163.9Q463.5 171.0 463.5 180.3L463.5 180.3Q463.5 189.5 459.5 196.6Q455.5 203.7 447.9 207.7Q440.3 211.6 429.6 211.6L429.6 211.6L406.2 211.6L406.2 195.9L426.4 195.9Q432.1 195.9 435.8 193.9Q439.5 191.9 441.3 188.4Q443.2 184.9 443.2 180.3L443.2 180.3Q443.2 175.6 441.3 172.1Q439.5 168.7 435.8 166.7Q432.0 164.8 426.3 164.8L426.3 164.8L413.0 164.8L413.0 241.8ZM533.8 207.5L533.8 148.7L553.5 148.7L553.5 209.2Q553.5 219.4 548.6 227.0Q543.8 234.6 535.1 238.9Q526.4 243.1 514.9 243.1L514.9 243.1Q503.3 243.1 494.6 238.9Q485.9 234.6 481.1 227.0Q476.3 219.4 476.3 209.2L476.3 209.2L476.3 148.7L496.0 148.7L496.0 207.5Q496.0 212.8 498.3 216.9Q500.6 221.1 504.9 223.4Q509.2 225.8 514.9 225.8L514.9 225.8Q520.6 225.8 524.8 223.4Q529.1 221.1 531.4 216.9Q533.8 212.8 533.8 207.5L533.8 207.5ZM627.1 207.5L627.1 148.7L646.8 148.7L646.8 209.2Q646.8 219.4 642.0 227.0Q637.1 234.6 628.5 238.9Q619.8 243.1 608.2 243.1L608.2 243.1Q596.6 243.1 588.0 238.9Q579.3 234.6 574.5 227.0Q569.6 219.4 569.6 209.2L569.6 209.2L569.6 148.7L589.3 148.7L589.3 207.5Q589.3 212.8 591.7 216.9Q594 221.1 598.3 223.4Q602.5 225.8 608.2 225.8L608.2 225.8Q614.0 225.8 618.2 223.4Q622.5 221.1 624.8 216.9Q627.1 212.8 627.1 207.5L627.1 207.5Z "/></svg>